<?xml version="1.0" encoding="utf-8"?>
<svg version="1.1" xmlns="http://www.w3.org/2000/svg" xmlns:xlink="http://www.w3.org/1999/xlink"
	 viewBox="0 0 800 300" xml:space="preserve">
<style type="text/css">
	.st0{fill:#FFE26D;}
	.st1{fill:#E54D26;}
	.st2{fill:#F1652A;}
	.st3{fill:#FFFFFF;}
	.st4{fill:#3C3E57;}
	.st5{fill:#211E25;}
	.st6{fill:#2B2A37;}
	.st7{fill:#FF5150;}
	.st8{fill:#FFBC00;}
	.st9{fill:#00D31B;}
	.st10{fill:#DEE683;}
	.st11{fill:#67CDCC;}
	.st12{fill:#FF79C6;}
	.st13{fill:#95B741;}
	.st14{fill:#333333;}
</style>
<polygon class="st0" points="566.8,0 506.9,0 0,0 0,300 556.8,300 800,300 800,126.5 800,0 "/>
<g>
	<path class="st1" d="M71.3,100.8H158l-7,89l-35.1,9.4l-35.1-9.4L71.3,100.8z"/>
	<path class="st2" d="M115.8,107.8H151l-4.7,77.3l-30.5,7V107.8z"/>
	<path class="st3" d="M90.1,119.5h51.5l-2.2,11.7h-38.1v9.4h38.1l-2.2,32.8l-20.2,7l-22.4-4.7L92.3,157h11.2v9.4l13.4,2.3l11.2-2.3
		v-14.1H92.3L90.1,119.5z"/>
</g>
<g>
	<path class="st4" d="M195.8,130.3h6.9v15.4h18.1v-15.4h6.9V169h-6.9v-17h-18.1v17h-6.9V130.3z"/>
	<path class="st4" d="M244.1,136.6h-11.8v-6.2h30.6v6.2H251V169h-6.9V136.6z"/>
	<path class="st4" d="M267.7,130.3h10.5l10.3,27.1l10.4-27.1h10.4V169h-6.6v-32.1h-0.1L290.9,169h-4.8l-11.7-32.1h-0.1V169h-6.5
		V130.3z"/>
	<path class="st4" d="M318.1,130.3h6.9v32.4h16.4v6.2h-23.3V130.3z"/>
	<path class="st4" d="M369.7,136.2h-15.6l-0.2,7.7c0.5-0.2,1.2-0.3,1.9-0.4c0.8-0.1,1.5-0.1,2.2-0.1c1.9,0,3.6,0.3,5.2,0.9
		c1.6,0.6,2.9,1.5,4.1,2.6c1.1,1.1,2,2.5,2.6,4c0.6,1.6,1,3.3,1,5.3c0,2.1-0.4,3.9-1.1,5.6s-1.7,3.1-2.9,4.2c-1.3,1.1-2.7,2-4.4,2.6
		c-1.7,0.6-3.5,0.9-5.5,0.9c-3.1,0-5.7-0.7-7.9-2.2c-2.2-1.5-3.7-3.7-4.6-6.7l6.9-1.9c0.4,1.4,1.2,2.5,2.2,3.3
		c1.1,0.8,2.4,1.2,4.1,1.2c1,0,1.9-0.2,2.7-0.5c0.8-0.3,1.5-0.8,2.1-1.4c0.6-0.6,1.1-1.3,1.4-2.1s0.5-1.7,0.5-2.6
		c0-1.3-0.2-2.5-0.7-3.4c-0.5-0.9-1.2-1.7-2-2.3c-0.8-0.6-1.8-1-2.9-1.3c-1.1-0.3-2.2-0.4-3.4-0.4c-1.4,0-2.8,0.2-4.2,0.5
		c-1.4,0.3-2.7,0.8-3.8,1.4l0.4-20.9h22V136.2z"/>
</g>
<g>
	<g>
		<path class="st5" d="M702.5,223h-240V71c0-2.2,1.8-4,4-4h231.9c2.2,0,4,1.8,4,4V223z"/>
		<g>
			<rect x="472.5" y="79.5" class="st6" width="220" height="136"/>
			<g>
				<rect x="472.5" y="79.5" class="st4" width="220" height="10"/>
				<g>
					<circle class="st7" cx="478.5" cy="84.5" r="3"/>
					<circle class="st8" cx="486" cy="84.5" r="3"/>
					<circle class="st9" cx="493.5" cy="84.5" r="3"/>
				</g>
			</g>
			<g>
				<path class="st10" d="M485.3,108.7l2.9,1.3v1l-5.6-2.6v-0.9l5.6-2.6v1l-2.9,1.3l-1.7,0.7v0L485.3,108.7z"/>
				<path class="st10" d="M490.3,110.7c0.4,0,0.7,0.3,0.7,0.7c0,0.4-0.3,0.7-0.7,0.7c-0.4,0-0.7-0.3-0.7-0.7
					C489.6,111,489.9,110.7,490.3,110.7z M489.9,109.2l-0.2-5.5h1.2l-0.2,5.5H489.9z"/>
				<path class="st10" d="M493.2,103.7h2.2c2.5,0,3.7,1.3,3.7,4.1c0,2.7-1.1,4.3-3.7,4.3h-2.2V103.7z M494.1,111.3h1.2
					c1.8,0,2.7-0.9,2.7-3.3c0-2.5-1-3.4-2.8-3.4h-1.2V111.3z"/>
				<path class="st10" d="M503.7,112.2c-2,0-3.2-1.2-3.2-4.3c0-3.1,1.3-4.4,3.3-4.4c2,0,3.2,1.2,3.2,4.3
					C507,111,505.7,112.2,503.7,112.2z M503.8,111.4c1.4,0,2.3-0.8,2.3-3.4c0-2.6-0.9-3.5-2.3-3.5c-1.4,0-2.3,0.8-2.3,3.4
					C501.5,110.5,502.4,111.4,503.8,111.4z"/>
				<path class="st10" d="M511.9,103.6c1.3,0,2,0.5,2.2,0.7l-0.6,0.7c-0.4-0.3-0.9-0.6-1.7-0.6c-1.5,0-2.4,1.1-2.4,3.4
					c0,2.3,0.9,3.5,2.5,3.5c0.9,0,1.3-0.2,1.6-0.5l0.5,0.7c-0.4,0.4-1.1,0.7-2.3,0.7c-2.3,0-3.3-1.7-3.3-4.3
					C508.5,105.2,509.7,103.6,511.9,103.6z"/>
				<path class="st10" d="M517,104.5h-2.2v-0.9h5.4v0.9h-2.2v7.6h-1V104.5z"/>
				<path class="st10" d="M524,109.1v3h-0.9v-3l-2.8-5.4h1.1l2.2,4.4h0l2.2-4.4h1L524,109.1z"/>
				<path class="st10" d="M533.1,106.1c0,1.7-1,2.7-2.9,2.7h-1.3v3.3h-1v-8.4h2.4C532,103.7,533.1,104.4,533.1,106.1z M528.9,104.5
					v3.4h1.3c1.4,0,1.9-0.6,1.9-1.7c0-1.2-0.7-1.7-1.9-1.7H528.9z"/>
				<path class="st10" d="M534.7,112.1v-8.4h4.5v0.9h-3.5v2.9h3.1v0.9h-3.1v3h3.7v0.9H534.7z"/>
				<path class="st10" d="M549.4,107.6v4.5h-0.9v-4.4c0-0.8-0.4-1.4-1.3-1.4c-0.9,0-1.5,0.6-1.7,1.2v4.7h-0.9V103h0.9v3.3h0
					c0.2-0.2,0.8-0.8,1.9-0.8C548.6,105.5,549.4,106.3,549.4,107.6z"/>
				<path class="st10" d="M551.5,110.4v-4h-1v-0.6l1-0.2l0.3-1.7h0.6v1.7h1.8v0.8h-1.8v4c0,0.7,0.4,1,0.9,1c0.5,0,0.8-0.1,1-0.2
					l0.3,0.7c-0.3,0.1-0.7,0.3-1.5,0.3C552.1,112.2,551.5,111.6,551.5,110.4z"/>
				<path class="st10" d="M562.2,105.4c1.3,0,2,0.7,2,2.2v4.5h-0.9v-4.3c0-1-0.5-1.5-1.3-1.5c-0.8,0-1.3,0.6-1.5,1.1v4.7h-0.9v-4.2
					c0-1-0.5-1.6-1.3-1.6c-0.8,0-1.3,0.6-1.5,1.2v4.7h-0.9v-6.5h0.7l0.2,0.7h0c0.2-0.3,0.7-0.8,1.7-0.8c1,0,1.5,0.4,1.7,1h0
					C560.6,106,561.2,105.4,562.2,105.4z"/>
				<path class="st10" d="M567.2,103v7.6c0,0.6,0.2,0.8,0.7,0.8c0.2,0,0.4-0.1,0.5-0.1v0.8c-0.2,0.1-0.6,0.1-0.8,0.1
					c-0.9,0-1.3-0.5-1.3-1.4V103H567.2z"/>
				<path class="st10" d="M571.9,107.2l-2.9-1.3v-1l5.6,2.6v0.9L569,111v-1l2.9-1.3l1.7-0.7v0L571.9,107.2z"/>
				<path class="st11" d="M485.3,123.1l2.9,1.3v1l-5.6-2.6v-0.9l5.6-2.6v1l-2.9,1.3l-1.7,0.7v0L485.3,123.1z"/>
				<path class="st11" d="M494.5,122v4.5h-0.9v-4.4c0-0.8-0.4-1.4-1.3-1.4c-0.9,0-1.5,0.6-1.7,1.2v4.7h-0.9v-9.1h0.9v3.3h0
					c0.2-0.2,0.8-0.8,1.9-0.8C493.7,119.9,494.5,120.7,494.5,122z"/>
				<path class="st11" d="M496.6,124.8v-4h-1v-0.6l1-0.2l0.3-1.7h0.6v1.7h1.8v0.8h-1.8v4c0,0.7,0.4,1,0.9,1c0.5,0,0.8-0.1,1-0.2
					l0.3,0.7c-0.3,0.1-0.7,0.3-1.5,0.3C497.2,126.6,496.6,126,496.6,124.8z"/>
				<path class="st11" d="M507.3,119.8c1.3,0,2,0.7,2,2.2v4.5h-0.9v-4.3c0-1-0.5-1.5-1.3-1.5c-0.8,0-1.3,0.6-1.5,1.1v4.7h-0.9v-4.2
					c0-1-0.5-1.6-1.3-1.6c-0.8,0-1.3,0.6-1.5,1.2v4.7H501V120h0.7l0.2,0.7h0c0.2-0.3,0.7-0.8,1.7-0.8c1,0,1.5,0.4,1.7,1h0
					C505.7,120.4,506.3,119.8,507.3,119.8z"/>
				<path class="st11" d="M512.3,117.4v7.6c0,0.6,0.2,0.8,0.7,0.8c0.2,0,0.4-0.1,0.5-0.1v0.8c-0.2,0.1-0.6,0.1-0.8,0.1
					c-0.9,0-1.3-0.5-1.3-1.4v-7.8H512.3z"/>
				<path class="st11" d="M517,121.6l-2.9-1.3v-1l5.6,2.6v0.9l-5.6,2.6v-1l2.9-1.3l1.7-0.7v0L517,121.6z"/>
				<path class="st11" d="M485.3,137.5l2.9,1.3v1l-5.6-2.6v-0.9l5.6-2.6v1l-2.9,1.3l-1.7,0.7v0L485.3,137.5z"/>
				<path class="st11" d="M494.5,136.4v4.5h-0.9v-4.4c0-0.8-0.4-1.4-1.3-1.4c-0.9,0-1.5,0.6-1.7,1.2v4.7h-0.9v-9.1h0.9v3.3h0
					c0.2-0.2,0.8-0.8,1.9-0.8C493.7,134.3,494.5,135.1,494.5,136.4z"/>
				<path class="st11" d="M501,140.4c-0.4,0.3-1.1,0.6-2.1,0.6c-1.9,0-2.9-0.9-2.9-3.4c0-2.4,1.3-3.3,2.8-3.3c1.5,0,2.4,1,2.4,2.6
					c0,0.3,0,0.7-0.1,1.1H497c0.1,1.6,0.8,2.2,2.1,2.2c0.6,0,1.2-0.3,1.5-0.5L501,140.4z M497,137.2h3.3c0-0.1,0-0.3,0-0.4
					c0-1.1-0.5-1.7-1.5-1.7C497.9,135.1,497.1,135.6,497,137.2z"/>
				<path class="st11" d="M507.2,136.3v3c0,0.6,0.2,1,0.6,1h0.2v0.7c-0.1,0-0.2,0.1-0.3,0.1c-0.6,0-1-0.3-1.2-0.8h0
					c-0.3,0.4-0.8,0.9-1.9,0.9c-1.2,0-1.9-0.9-1.9-1.7c0-1.4,1.4-2.1,3.7-2.1v-0.7c0-1.1-0.5-1.4-1.4-1.4c-0.9,0-1.3,0.5-1.5,0.8
					l-0.7-0.5c0.2-0.3,0.8-1.1,2.2-1.1C506.4,134.3,507.2,134.9,507.2,136.3z M506.3,137.9c-1.6-0.1-2.8,0.3-2.8,1.3
					c0,0.6,0.4,1,1.2,1c0.7,0,1.3-0.4,1.6-0.9V137.9z"/>
				<path class="st11" d="M513.3,131.8h0.9v9.1h-0.7l-0.2-0.7h0c-0.3,0.4-0.9,0.8-1.7,0.8c-1.5,0-2.4-1-2.4-3.1
					c0-2.4,1.3-3.5,3.1-3.5c0.4,0,0.7,0,1,0.1V131.8z M513.3,139.2v-3.8c-0.3-0.1-0.7-0.2-1-0.2c-1.4,0-2.2,0.8-2.2,2.6
					c0,1.8,0.8,2.4,1.7,2.4C512.5,140.2,513,139.8,513.3,139.2z"/>
				<path class="st11" d="M518.5,136l-2.9-1.3v-1l5.6,2.6v0.9l-5.6,2.6v-1l2.9-1.3l1.7-0.7v0L518.5,136z"/>
				<path class="st11" d="M499.7,151.9l2.9,1.3v1l-5.6-2.6v-0.9l5.6-2.6v1l-2.9,1.3l-1.7,0.7v0L499.7,151.9z"/>
				<path class="st11" d="M504.1,153.6v-4h-1v-0.6l1-0.2l0.3-1.7h0.6v1.7h1.8v0.8h-1.8v4c0,0.7,0.4,1,0.9,1c0.5,0,0.8-0.1,1-0.2
					l0.3,0.7c-0.3,0.1-0.7,0.3-1.5,0.3C504.7,155.4,504.1,154.8,504.1,153.6z"/>
				<path class="st11" d="M509.2,146.2c0.4,0,0.7,0.3,0.7,0.7c0,0.4-0.3,0.7-0.7,0.7c-0.4,0-0.7-0.3-0.7-0.7
					C508.6,146.5,508.9,146.2,509.2,146.2z M508.8,148.8h0.9v6.5h-0.9V148.8z"/>
				<path class="st11" d="M512.2,153.6v-4h-1v-0.6l1-0.2l0.3-1.7h0.6v1.7h1.8v0.8h-1.8v4c0,0.7,0.4,1,0.9,1c0.5,0,0.8-0.1,1-0.2
					l0.3,0.7c-0.3,0.1-0.7,0.3-1.5,0.3C512.8,155.4,512.2,154.8,512.2,153.6z"/>
				<path class="st11" d="M517.6,146.2v7.6c0,0.6,0.2,0.8,0.7,0.8c0.2,0,0.4-0.1,0.5-0.1v0.8c-0.2,0.1-0.6,0.1-0.8,0.1
					c-0.9,0-1.3-0.5-1.3-1.4v-7.8H517.6z"/>
				<path class="st11" d="M524.6,154.8c-0.4,0.3-1.1,0.6-2.1,0.6c-1.9,0-2.9-0.9-2.9-3.4c0-2.4,1.3-3.3,2.8-3.3c1.5,0,2.4,1,2.4,2.6
					c0,0.3,0,0.7-0.1,1.1h-4.1c0.1,1.6,0.8,2.2,2.1,2.2c0.6,0,1.2-0.3,1.5-0.5L524.6,154.8z M520.6,151.6h3.3c0-0.1,0-0.3,0-0.4
					c0-1.1-0.5-1.7-1.5-1.7C521.5,149.5,520.7,150,520.6,151.6z"/>
				<path class="st11" d="M528.8,150.4l-2.9-1.3v-1l5.6,2.6v0.9l-5.6,2.6v-1l2.9-1.3l1.7-0.7v0L528.8,150.4z"/>
				<path class="st12" d="M533,146.9h2.2c2.5,0,3.7,1.3,3.7,4.1c0,2.7-1.1,4.3-3.7,4.3H533V146.9z M533.9,154.5h1.2
					c1.8,0,2.7-0.9,2.7-3.3c0-2.5-1-3.4-2.8-3.4h-1.2V154.5z"/>
				<path class="st12" d="M540.2,152.1c0-2,0.8-3.4,2.7-3.4c2,0,2.7,1.3,2.7,3.3c0,2-0.8,3.4-2.7,3.4
					C540.9,155.4,540.2,154.1,540.2,152.1z M543,154.6c1.3,0,1.7-0.8,1.7-2.5c0-1.8-0.5-2.6-1.8-2.6c-1.2,0-1.7,0.8-1.7,2.5
					C541.2,153.7,541.7,154.6,543,154.6z"/>
				<path class="st12" d="M549.7,148.7c1,0,1.6,0.4,1.9,0.7l-0.6,0.7c-0.3-0.3-0.6-0.5-1.3-0.5c-1.1,0-1.8,0.7-1.8,2.5
					c0,1.9,0.7,2.6,1.8,2.6c0.6,0,1-0.2,1.3-0.5l0.6,0.6c-0.3,0.3-0.8,0.7-1.9,0.7c-1.6,0-2.6-0.9-2.6-3.3
					C546.9,149.7,548.1,148.7,549.7,148.7z"/>
				<path class="st12" d="M552.9,148.8h0.9v4.3c0,1.1,0.5,1.6,1.4,1.6c0.9,0,1.6-0.5,1.6-1.6v-4.3h0.9v6.5h-0.7l-0.2-0.7h0
					c-0.2,0.3-0.8,0.8-1.9,0.8c-1.3,0-2.1-0.7-2.1-2.2V148.8z"/>
				<path class="st12" d="M566.2,148.6c1.3,0,2,0.7,2,2.2v4.5h-0.9V151c0-1-0.5-1.5-1.3-1.5c-0.8,0-1.3,0.6-1.5,1.1v4.7h-0.9v-4.2
					c0-1-0.5-1.6-1.3-1.6c-0.8,0-1.3,0.6-1.5,1.2v4.7h-0.9v-6.5h0.7l0.2,0.7h0c0.2-0.3,0.7-0.8,1.7-0.8c1,0,1.5,0.4,1.7,1h0
					C564.5,149.2,565.2,148.6,566.2,148.6z"/>
				<path class="st12" d="M574.7,154.8c-0.4,0.3-1.1,0.6-2.1,0.6c-1.9,0-2.9-0.9-2.9-3.4c0-2.4,1.3-3.3,2.8-3.3c1.5,0,2.4,1,2.4,2.6
					c0,0.3,0,0.7-0.1,1.1h-4.1c0.1,1.6,0.8,2.2,2.1,2.2c0.6,0,1.2-0.3,1.5-0.5L574.7,154.8z M570.7,151.6h3.3c0-0.1,0-0.3,0-0.4
					c0-1.1-0.5-1.7-1.5-1.7C571.6,149.5,570.8,150,570.7,151.6z"/>
				<path class="st12" d="M581.6,155.3h-0.9V151c0-1-0.5-1.5-1.4-1.5c-0.8,0-1.4,0.5-1.7,1.2v4.7h-0.9v-6.5h0.7l0.2,0.7h0
					c0.2-0.2,0.8-0.8,1.9-0.8c1.3,0,2.1,0.7,2.1,2.2V155.3z"/>
				<path class="st12" d="M583.8,153.6v-4h-1v-0.6l1-0.2l0.3-1.7h0.6v1.7h1.8v0.8h-1.8v4c0,0.7,0.4,1,0.9,1c0.5,0,0.8-0.1,1-0.2
					l0.3,0.7c-0.3,0.1-0.7,0.3-1.5,0.3C584.4,155.4,583.8,154.8,583.8,153.6z"/>
				<path class="st11" d="M590.2,151.9l2.9,1.3v1l-5.6-2.6v-0.9l5.6-2.6v1l-2.9,1.3l-1.7,0.7v0L590.2,151.9z"/>
				<path class="st11" d="M597.5,146.5l-3.3,10.4h-0.8l3.3-10.4H597.5z"/>
				<path class="st11" d="M598.7,153.6v-4h-1v-0.6l1-0.2l0.3-1.7h0.6v1.7h1.8v0.8h-1.8v4c0,0.7,0.4,1,0.9,1c0.5,0,0.8-0.1,1-0.2
					l0.3,0.7c-0.3,0.1-0.7,0.3-1.5,0.3C599.3,155.4,598.7,154.8,598.7,153.6z"/>
				<path class="st11" d="M603.8,146.2c0.4,0,0.7,0.3,0.7,0.7c0,0.4-0.3,0.7-0.7,0.7c-0.4,0-0.7-0.3-0.7-0.7
					C603.1,146.5,603.4,146.2,603.8,146.2z M603.4,148.8h0.9v6.5h-0.9V148.8z"/>
				<path class="st11" d="M606.7,153.6v-4h-1v-0.6l1-0.2l0.3-1.7h0.6v1.7h1.8v0.8h-1.8v4c0,0.7,0.4,1,0.9,1c0.5,0,0.8-0.1,1-0.2
					l0.3,0.7c-0.3,0.1-0.7,0.3-1.5,0.3C607.3,155.4,606.7,154.8,606.7,153.6z"/>
				<path class="st11" d="M612.1,146.2v7.6c0,0.6,0.2,0.8,0.7,0.8c0.2,0,0.4-0.1,0.5-0.1v0.8c-0.2,0.1-0.6,0.1-0.8,0.1
					c-0.9,0-1.3-0.5-1.3-1.4v-7.8H612.1z"/>
				<path class="st11" d="M619.1,154.8c-0.4,0.3-1.1,0.6-2.1,0.6c-1.9,0-2.9-0.9-2.9-3.4c0-2.4,1.3-3.3,2.8-3.3c1.5,0,2.4,1,2.4,2.6
					c0,0.3,0,0.7-0.1,1.1h-4.1c0.1,1.6,0.8,2.2,2.1,2.2c0.6,0,1.2-0.3,1.5-0.5L619.1,154.8z M615.2,151.6h3.3c0-0.1,0-0.3,0-0.4
					c0-1.1-0.5-1.7-1.5-1.7C616.1,149.5,615.2,150,615.2,151.6z"/>
				<path class="st11" d="M623.3,150.4l-2.9-1.3v-1l5.6,2.6v0.9l-5.6,2.6v-1l2.9-1.3l1.7-0.7v0L623.3,150.4z"/>
				<path class="st11" d="M485.3,166.3l2.9,1.3v1l-5.6-2.6v-0.9l5.6-2.6v1l-2.9,1.3l-1.7,0.7v0L485.3,166.3z"/>
				<path class="st11" d="M492.6,160.9l-3.3,10.4h-0.8l3.3-10.4H492.6z"/>
				<path class="st11" d="M498.5,165.2v4.5h-0.9v-4.4c0-0.8-0.4-1.4-1.3-1.4c-0.9,0-1.5,0.6-1.7,1.2v4.7h-0.9v-9.1h0.9v3.3h0
					c0.2-0.2,0.8-0.8,1.9-0.8C497.7,163.1,498.5,163.9,498.5,165.2z"/>
				<path class="st11" d="M505.1,169.2c-0.4,0.3-1.1,0.6-2.1,0.6c-1.9,0-2.9-0.9-2.9-3.4c0-2.4,1.3-3.3,2.8-3.3c1.5,0,2.4,1,2.4,2.6
					c0,0.3,0,0.7-0.1,1.1h-4.1c0.1,1.6,0.8,2.2,2.1,2.2c0.6,0,1.2-0.3,1.5-0.5L505.1,169.2z M501.1,166h3.3c0-0.1,0-0.3,0-0.4
					c0-1.1-0.5-1.7-1.5-1.7C502,163.9,501.2,164.4,501.1,166z"/>
				<path class="st11" d="M511.2,165.1v3c0,0.6,0.2,1,0.6,1h0.2v0.7c-0.1,0-0.2,0.1-0.3,0.1c-0.6,0-1-0.3-1.2-0.8h0
					c-0.3,0.4-0.8,0.9-1.9,0.9c-1.2,0-1.9-0.9-1.9-1.7c0-1.4,1.4-2.1,3.7-2.1v-0.7c0-1.1-0.5-1.4-1.4-1.4c-0.9,0-1.3,0.5-1.5,0.8
					l-0.7-0.5c0.2-0.3,0.8-1.1,2.2-1.1C510.4,163.1,511.2,163.7,511.2,165.1z M510.4,166.7c-1.6-0.1-2.8,0.3-2.8,1.3
					c0,0.6,0.4,1,1.2,1c0.7,0,1.3-0.4,1.6-0.9V166.7z"/>
				<path class="st11" d="M517.3,160.6h0.9v9.1h-0.7l-0.2-0.7h0c-0.3,0.4-0.9,0.8-1.7,0.8c-1.5,0-2.4-1-2.4-3.1
					c0-2.4,1.3-3.5,3.1-3.5c0.4,0,0.7,0,1,0.1V160.6z M517.3,168v-3.8c-0.3-0.1-0.7-0.2-1-0.2c-1.4,0-2.2,0.8-2.2,2.6
					c0,1.8,0.8,2.4,1.7,2.4C516.6,169,517.1,168.6,517.3,168z"/>
				<path class="st11" d="M522.5,164.8l-2.9-1.3v-1l5.6,2.6v0.9l-5.6,2.6v-1l2.9-1.3l1.7-0.7v0L522.5,164.8z"/>
				<path class="st11" d="M485.3,180.7l2.9,1.3v1l-5.6-2.6v-0.9l5.6-2.6v1l-2.9,1.3l-1.7,0.7v0L485.3,180.7z"/>
				<path class="st11" d="M489.5,175h0.9v3h0c0.2-0.2,0.8-0.5,1.6-0.5c1.4,0,2.5,0.9,2.5,3.1c0,2.1-1,3.6-3.2,3.6
					c-0.8,0-1.4-0.1-1.8-0.3V175z M493.6,180.8c0-1.9-0.9-2.4-1.8-2.4c-0.5,0-1.1,0.2-1.4,0.6v4.2c0.3,0.1,0.6,0.2,1,0.2
					C492.8,183.4,493.6,182.5,493.6,180.8z"/>
				<path class="st11" d="M495.9,180.9c0-2,0.8-3.4,2.7-3.4c2,0,2.7,1.3,2.7,3.3c0,2-0.8,3.4-2.7,3.4
					C496.6,184.2,495.9,182.9,495.9,180.9z M498.6,183.4c1.3,0,1.7-0.8,1.7-2.5c0-1.8-0.5-2.6-1.8-2.6c-1.2,0-1.7,0.8-1.7,2.5
					C496.8,182.5,497.4,183.4,498.6,183.4z"/>
				<path class="st11" d="M506.6,175h0.9v9.1h-0.7l-0.2-0.7h0c-0.3,0.4-0.9,0.8-1.7,0.8c-1.5,0-2.4-1-2.4-3.1c0-2.4,1.3-3.5,3.1-3.5
					c0.4,0,0.7,0,1,0.1V175z M506.6,182.4v-3.8c-0.3-0.1-0.7-0.2-1-0.2c-1.4,0-2.2,0.8-2.2,2.6c0,1.8,0.8,2.4,1.7,2.4
					C505.9,183.4,506.4,183,506.6,182.4z"/>
				<path class="st11" d="M509,185.7c0.2,0.1,0.4,0.1,0.6,0.1c0.8,0,1.3-0.4,1.5-1.4l-2.4-6.8h1l1.1,3.2c0.4,1.2,0.6,1.8,0.7,2.4h0
					c0.1-0.5,0.3-1,0.7-2.4l1-3.2h1l-2.3,7c-0.4,1.2-1.1,2.1-2.4,2.1c-0.3,0-0.6-0.1-0.7-0.1L509,185.7z"/>
				<path class="st11" d="M517.8,179.2l-2.9-1.3v-1l5.6,2.6v0.9l-5.6,2.6v-1l2.9-1.3l1.7-0.7v0L517.8,179.2z"/>
				<path class="st11" d="M499.7,195.1l2.9,1.3v1l-5.6-2.6v-0.9l5.6-2.6v1l-2.9,1.3l-1.7,0.7v0L499.7,195.1z"/>
				<path class="st11" d="M505.9,198.5c-0.3,0-0.7,0-1-0.1v2.4h-0.9V192h0.7l0.2,0.7h0c0.3-0.4,0.9-0.8,1.7-0.8c1.5,0,2.4,1,2.4,3.1
					C509,197.3,507.8,198.5,505.9,198.5z M505.8,197.7c1.5,0,2.2-0.9,2.2-2.6c0-1.8-0.8-2.4-1.7-2.4c-0.8,0-1.3,0.5-1.5,0.9v4
					C505.1,197.6,505.6,197.7,505.8,197.7z"/>
				<path class="st11" d="M512.9,193.6l-2.9-1.3v-1l5.6,2.6v0.9l-5.6,2.6v-1l2.9-1.3l1.7-0.7v0L512.9,193.6z"/>
				<path class="st13" d="M523.1,190.1v8.4h-1v-3.8h-4.1v3.8h-1v-8.4h1v3.7h4.1v-3.7H523.1z"/>
				<path class="st13" d="M529.8,198c-0.4,0.3-1.1,0.6-2.1,0.6c-1.9,0-2.9-0.9-2.9-3.4c0-2.4,1.3-3.3,2.8-3.3c1.5,0,2.4,1,2.4,2.6
					c0,0.3,0,0.7-0.1,1.1h-4.1c0.1,1.6,0.8,2.2,2.1,2.2c0.6,0,1.2-0.3,1.5-0.5L529.8,198z M525.8,194.8h3.3c0-0.1,0-0.3,0-0.4
					c0-1.1-0.5-1.7-1.5-1.7C526.7,192.7,525.9,193.2,525.8,194.8z"/>
				<path class="st13" d="M532.7,189.4v7.6c0,0.6,0.2,0.8,0.7,0.8c0.2,0,0.4-0.1,0.5-0.1v0.8c-0.2,0.1-0.6,0.1-0.8,0.1
					c-0.9,0-1.3-0.5-1.3-1.4v-7.8H532.7z"/>
				<path class="st13" d="M536.2,189.4v7.6c0,0.6,0.2,0.8,0.7,0.8c0.2,0,0.4-0.1,0.5-0.1v0.8c-0.2,0.1-0.6,0.1-0.8,0.1
					c-0.9,0-1.3-0.5-1.3-1.4v-7.8H536.2z"/>
				<path class="st13" d="M538.3,195.3c0-2,0.8-3.4,2.7-3.4c2,0,2.7,1.3,2.7,3.3c0,2-0.8,3.4-2.7,3.4
					C539,198.6,538.3,197.3,538.3,195.3z M541,197.8c1.3,0,1.7-0.8,1.7-2.5c0-1.8-0.5-2.6-1.8-2.6c-1.2,0-1.7,0.8-1.7,2.5
					C539.2,196.9,539.8,197.8,541,197.8z"/>
				<path class="st13" d="M551,197.6c0.2-0.8,0.3-1.4,0.5-2.1l1.3-5.3h1.4l1.4,5.4c0.2,0.7,0.3,1.4,0.5,2.1h0
					c0.2-0.7,0.3-1.4,0.5-2.2l1.4-5.3h0.9l-2.2,8.4h-1.4l-1.3-5.4c-0.2-0.8-0.4-1.5-0.5-2.2h0c-0.2,0.7-0.3,1.4-0.5,2.1l-1.4,5.4
					h-1.4l-2.2-8.4h1l1.3,5.2C550.6,196.1,550.8,196.8,551,197.6L551,197.6z"/>
				<path class="st13" d="M559.6,195.3c0-2,0.8-3.4,2.7-3.4c2,0,2.7,1.3,2.7,3.3c0,2-0.8,3.4-2.7,3.4
					C560.3,198.6,559.6,197.3,559.6,195.3z M562.3,197.8c1.3,0,1.7-0.8,1.7-2.5c0-1.8-0.5-2.6-1.8-2.6c-1.2,0-1.7,0.8-1.7,2.5
					C560.6,196.9,561.1,197.8,562.3,197.8z"/>
				<path class="st13" d="M569.9,192.9c-0.2-0.1-0.5-0.1-0.7-0.1c-0.6,0-1.3,0.3-1.6,0.8v4.9h-0.9V192h0.7l0.2,0.7h0
					c0.3-0.5,0.9-0.8,1.6-0.8c0.3,0,0.5,0,0.7,0.1V192.9z"/>
				<path class="st13" d="M572,189.4v7.6c0,0.6,0.2,0.8,0.7,0.8c0.2,0,0.4-0.1,0.5-0.1v0.8c-0.2,0.1-0.6,0.1-0.8,0.1
					c-0.9,0-1.3-0.5-1.3-1.4v-7.8H572z"/>
				<path class="st13" d="M578.2,189.4h0.9v9.1h-0.7l-0.2-0.7h0c-0.3,0.4-0.9,0.8-1.7,0.8c-1.5,0-2.4-1-2.4-3.1
					c0-2.4,1.3-3.5,3.1-3.5c0.4,0,0.7,0,1,0.1V189.4z M578.2,196.8V193c-0.3-0.1-0.7-0.2-1-0.2c-1.4,0-2.2,0.8-2.2,2.6
					c0,1.8,0.8,2.4,1.7,2.4C577.5,197.8,578,197.4,578.2,196.8z"/>
				<path class="st13" d="M581.9,197.1c0.4,0,0.7,0.3,0.7,0.7c0,0.4-0.3,0.7-0.7,0.7c-0.4,0-0.7-0.3-0.7-0.7
					C581.2,197.4,581.5,197.1,581.9,197.1z M581.6,195.6l-0.2-5.5h1.2l-0.2,5.5H581.6z"/>
				<path class="st11" d="M586.7,195.1l2.9,1.3v1l-5.6-2.6v-0.9l5.6-2.6v1l-2.9,1.3l-1.7,0.7v0L586.7,195.1z"/>
				<path class="st11" d="M594,189.7l-3.3,10.4h-0.8l3.3-10.4H594z"/>
				<path class="st11" d="M597,198.5c-0.3,0-0.7,0-1-0.1v2.4H595V192h0.7l0.2,0.7h0c0.3-0.4,0.9-0.8,1.7-0.8c1.5,0,2.4,1,2.4,3.1
					C600.1,197.3,598.8,198.5,597,198.5z M596.9,197.7c1.5,0,2.2-0.9,2.2-2.6c0-1.8-0.8-2.4-1.7-2.4c-0.8,0-1.3,0.5-1.5,0.9v4
					C596.2,197.6,596.7,197.7,596.9,197.7z"/>
				<path class="st11" d="M604,193.6l-2.9-1.3v-1l5.6,2.6v0.9l-5.6,2.6v-1l2.9-1.3l1.7-0.7v0L604,193.6z"/>
				<path class="st11" d="M485.3,209.5l2.9,1.3v1l-5.6-2.6v-0.9l5.6-2.6v1l-2.9,1.3l-1.7,0.7v0L485.3,209.5z"/>
				<path class="st11" d="M492.6,204.1l-3.3,10.4h-0.8l3.3-10.4H492.6z"/>
				<path class="st11" d="M493.6,203.8h0.9v3h0c0.2-0.2,0.8-0.5,1.6-0.5c1.4,0,2.5,0.9,2.5,3.1c0,2.1-1,3.6-3.2,3.6
					c-0.8,0-1.4-0.1-1.8-0.3V203.8z M497.7,209.6c0-1.9-0.9-2.4-1.8-2.4c-0.5,0-1.1,0.2-1.4,0.6v4.2c0.3,0.1,0.6,0.2,1,0.2
					C496.9,212.2,497.7,211.3,497.7,209.6z"/>
				<path class="st11" d="M499.9,209.7c0-2,0.8-3.4,2.7-3.4c2,0,2.7,1.3,2.7,3.3c0,2-0.8,3.4-2.7,3.4
					C500.6,213,499.9,211.7,499.9,209.7z M502.7,212.2c1.3,0,1.7-0.8,1.7-2.5c0-1.8-0.5-2.6-1.8-2.6c-1.2,0-1.7,0.8-1.7,2.5
					C500.9,211.3,501.4,212.2,502.7,212.2z"/>
				<path class="st11" d="M510.7,203.8h0.9v9.1h-0.7l-0.2-0.7h0c-0.3,0.4-0.9,0.8-1.7,0.8c-1.5,0-2.4-1-2.4-3.1
					c0-2.4,1.3-3.5,3.1-3.5c0.4,0,0.7,0,1,0.1V203.8z M510.7,211.2v-3.8c-0.3-0.1-0.7-0.2-1-0.2c-1.4,0-2.2,0.8-2.2,2.6
					c0,1.8,0.8,2.4,1.7,2.4C509.9,212.2,510.4,211.8,510.7,211.2z"/>
				<path class="st11" d="M513.1,214.5c0.2,0.1,0.4,0.1,0.6,0.1c0.8,0,1.3-0.4,1.5-1.4l-2.4-6.8h1l1.1,3.2c0.4,1.2,0.6,1.8,0.7,2.4
					h0c0.1-0.5,0.3-1,0.7-2.4l1-3.2h1l-2.3,7c-0.4,1.2-1.1,2.1-2.4,2.1c-0.3,0-0.6-0.1-0.7-0.1L513.1,214.5z"/>
				<path class="st11" d="M521.8,208l-2.9-1.3v-1l5.6,2.6v0.9l-5.6,2.6v-1l2.9-1.3l1.7-0.7v0L521.8,208z"/>
			</g>
		</g>
	</g>
	<g>
		<g>
			<rect x="432.5" y="223" class="st14" width="300" height="8"/>
			<polygon class="st5" points="732.5,231 722.1,234 442.9,234 432.5,231"/>
		</g>
		<polygon class="st3" points="622.5,223 617.1,227 547.9,227 542.5,223"/>
	</g>
</g>
</svg>
